<svg width="241" height="48" viewBox="0 0 241 48" fill="none" xmlns="http://www.w3.org/2000/svg">
<g clip-path="url(#clip0_2312_118)">
<path d="M30.2123 31.9766H14.4359L12.2812 37.4299H0L14.8608 0H29.671L44.5875 37.4299H32.3721L30.2123 31.9766ZM26.3883 22.25L22.2963 11.931L18.2498 22.25H26.3883Z" fill="#EEEEEE"/>
<path d="M69.0891 18.3986L83.09 37.4299H67.8498L56.7573 20.7486V37.4299H44.6178V0H56.7573V16.2645L68.5529 0H83.4188L69.0891 18.3986Z" fill="#EEEEEE"/>
<path d="M110.611 31.9766H94.835L92.6802 37.4299H80.4244L95.2649 0H110.075L124.992 37.4248H112.766L110.611 31.9766ZM106.787 22.25L102.68 11.931L98.6337 22.25H106.787Z" fill="#EEEEEE"/>
<path d="M162.306 12.4632C162.306 21.7127 154.875 28.2858 144.425 28.2858H136.064L133.803 37.4248H121.663L130.96 0H148.203C157.136 0 162.306 5.52359 162.306 12.4632ZM149.544 13.7989C149.544 12.0364 148.411 10.8564 146.312 10.8564H140.389L138.593 18.1274H143.98C147.227 18.1324 149.544 16.3699 149.544 13.7989Z" fill="white"/>
<path d="M183.251 31.9766H167.794L164.349 37.4299H151.157L175.517 0H190.186L195.75 37.4248H184.066L183.251 31.9766ZM181.906 22.25L180.505 12.0515L174 22.25H181.906Z" fill="white"/>
<path d="M239.902 0L218.795 25.3533L215.724 37.4349H203.661L206.696 25.3533L197.9 0H211.051L215.097 12.7796L225.477 0H239.902Z" fill="white"/>
<path d="M98.4111 47.9749C98.042 47.9936 97.6729 47.9388 97.3254 47.8137C96.978 47.6887 96.6592 47.4959 96.3879 47.2468C96.1284 46.9636 95.9292 46.6312 95.8023 46.2696C95.6754 45.9081 95.6234 45.5248 95.6494 45.1428V41.5927H96.8279V45.1077C96.7831 45.6138 96.9331 46.118 97.2478 46.5187C97.4039 46.6705 97.5903 46.7883 97.795 46.8644C97.9998 46.9405 98.2182 46.9732 98.4364 46.9606C98.6541 46.9757 98.8725 46.9441 99.0768 46.8679C99.2811 46.7916 99.4664 46.6725 99.62 46.5187C99.9329 46.1173 100.081 45.6131 100.035 45.1077V41.5927H101.163V45.1428C101.189 45.5248 101.137 45.9081 101.01 46.2696C100.883 46.6312 100.684 46.9636 100.424 47.2468C100.156 47.4978 99.8396 47.6919 99.4934 47.8171C99.1472 47.9423 98.7789 47.996 98.4111 47.9749Z" fill="#353535"/>
<path d="M102.549 47.8845V41.5927H103.515L106.287 46.1973H105.781L108.507 41.6077H109.478V47.8996H108.366V43.3451H108.598L106.282 47.1815H105.776L103.424 43.3451H103.692V47.8996L102.549 47.8845Z" fill="#353535"/>
<path d="M113.13 47.8845V41.5926H115.735C116.23 41.5797 116.721 41.6721 117.177 41.8638C117.555 42.0258 117.877 42.2947 118.102 42.6371C118.314 43.0003 118.426 43.4125 118.426 43.8322C118.426 44.2519 118.314 44.6641 118.102 45.0273C117.877 45.3697 117.555 45.6386 117.177 45.8006C116.721 45.9918 116.23 46.0843 115.735 46.0718H113.778L114.284 45.5244V47.8895H113.11L113.13 47.8845ZM114.314 45.65L113.808 45.0825H115.71C116.127 45.112 116.542 44.9966 116.883 44.7561C117.008 44.6367 117.107 44.4936 117.175 44.3352C117.243 44.1769 117.278 44.0067 117.278 43.8347C117.278 43.6627 117.243 43.4925 117.175 43.3342C117.107 43.1758 117.008 43.0327 116.883 42.9133C116.542 42.6728 116.127 42.5574 115.71 42.5869H113.808L114.314 42.0094V45.65Z" fill="#353535"/>
<path d="M119.332 47.8845V41.5926H121.937C122.431 41.5797 122.923 41.6721 123.378 41.8638C123.756 42.0258 124.078 42.2947 124.304 42.6371C124.527 42.9956 124.639 43.411 124.627 43.8322C124.64 44.2519 124.527 44.666 124.304 45.0223C124.078 45.3617 123.756 45.6273 123.378 45.7855C122.922 45.9731 122.43 46.0638 121.937 46.0517H119.979L120.485 45.5495V47.9146H119.311L119.332 47.8845ZM120.505 45.65L119.999 45.0926H121.901C122.319 45.1232 122.735 45.0058 123.075 44.7612C123.207 44.6472 123.311 44.5048 123.38 44.3446C123.448 44.1845 123.479 44.0109 123.469 43.8372C123.48 43.6634 123.449 43.4896 123.381 43.3294C123.312 43.1691 123.208 43.0267 123.075 42.9133C122.733 42.6728 122.319 42.5574 121.901 42.5869H119.979L120.485 42.0094L120.505 45.65ZM123.474 47.8845L121.871 45.5997H123.13L124.744 47.8845H123.474Z" fill="#353535"/>
<path d="M128.639 47.9749C128.172 47.9801 127.709 47.8983 127.273 47.7339C126.869 47.5807 126.5 47.3504 126.185 47.056C125.881 46.7734 125.638 46.4316 125.472 46.0517C125.299 45.6436 125.213 45.2041 125.219 44.7612C125.215 44.3185 125.301 43.8795 125.472 43.4707C125.64 43.092 125.882 42.7505 126.185 42.4664C126.499 42.1709 126.869 41.9405 127.273 41.7885C128.149 41.4671 129.113 41.4671 129.989 41.7885C130.391 41.9418 130.759 42.1721 131.071 42.4664C131.376 42.749 131.619 43.0908 131.785 43.4707C131.956 43.8795 132.042 44.3185 132.038 44.7612C132.041 45.2055 131.955 45.646 131.785 46.0567C131.618 46.4358 131.375 46.7774 131.071 47.061C130.759 47.3515 130.393 47.5799 129.994 47.7339C129.562 47.8981 129.102 47.9799 128.639 47.9749ZM128.639 46.9706C128.941 46.973 129.242 46.9185 129.524 46.8099C129.789 46.7083 130.029 46.5507 130.227 46.348C130.426 46.1452 130.584 45.9066 130.692 45.645C130.915 45.0765 130.915 44.4459 130.692 43.8774C130.585 43.6167 130.427 43.3795 130.227 43.1794C130.028 42.9781 129.788 42.8207 129.524 42.7175C129.241 42.6094 128.941 42.5549 128.639 42.5568C128.338 42.5543 128.039 42.6088 127.758 42.7175C127.495 42.8223 127.256 42.9795 127.055 43.1794C126.853 43.3788 126.693 43.6161 126.585 43.8774C126.362 44.4441 126.362 45.0732 126.585 45.6399C126.692 45.9037 126.85 46.1442 127.05 46.348C127.249 46.5493 127.489 46.7067 127.753 46.8099C128.033 46.9132 128.33 46.9609 128.628 46.9505L128.639 46.9706Z" fill="#353535"/>
<path d="M133.029 47.8845V41.5926H135.796C136.423 41.5784 137.044 41.7145 137.607 41.9893C138.105 42.2367 138.525 42.6154 138.821 43.084C139.106 43.5876 139.256 44.1557 139.256 44.7335C139.256 45.3114 139.106 45.8795 138.821 46.3831C138.53 46.8572 138.109 47.2387 137.607 47.4828C137.044 47.7576 136.423 47.8937 135.796 47.8795H133.029V47.8845ZM134.202 46.8802H135.72C136.147 46.8914 136.571 46.7983 136.954 46.609C137.289 46.4392 137.568 46.1779 137.758 45.8558C137.944 45.507 138.042 45.1182 138.042 44.7235C138.042 44.3288 137.944 43.94 137.758 43.5912C137.568 43.2706 137.289 43.011 136.954 42.843C136.571 42.6543 136.147 42.5613 135.72 42.5718H134.202V46.8802Z" fill="#353535"/>
<path d="M142.928 47.9749C142.559 47.9936 142.19 47.9388 141.842 47.8137C141.495 47.6887 141.176 47.4959 140.905 47.2468C140.645 46.9636 140.446 46.6312 140.319 46.2696C140.192 45.9081 140.14 45.5248 140.166 45.1428V41.5927H141.345V45.1077C141.3 45.6138 141.45 46.118 141.764 46.5187C141.921 46.6705 142.107 46.7883 142.312 46.8644C142.516 46.9405 142.735 46.9732 142.953 46.9606C143.171 46.9757 143.389 46.9441 143.593 46.8679C143.798 46.7916 143.983 46.6725 144.137 46.5187C144.45 46.1173 144.598 45.6131 144.551 45.1077V41.5927H145.674V45.1428C145.7 45.5248 145.648 45.9081 145.521 46.2696C145.395 46.6312 145.195 46.9636 144.936 47.2468C144.668 47.4967 144.352 47.6901 144.007 47.8152C143.662 47.9404 143.295 47.9947 142.928 47.9749Z" fill="#353535"/>
<path d="M148.234 47.8845V42.5819H146.135V41.5776H151.511V42.5819H149.412V47.8845H148.234Z" fill="#353535"/>
<path d="M154.991 47.9749C154.525 47.9801 154.062 47.8983 153.626 47.7339C153.222 47.5807 152.853 47.3504 152.538 47.056C152.234 46.7734 151.991 46.4316 151.825 46.0517C151.652 45.6436 151.566 45.2041 151.572 44.7612C151.568 44.3185 151.654 43.8795 151.825 43.4707C151.991 43.0908 152.234 42.749 152.538 42.4664C152.852 42.1709 153.221 41.9405 153.626 41.7885C154.502 41.4671 155.465 41.4671 156.342 41.7885C156.744 41.9418 157.112 42.1721 157.424 42.4664C157.729 42.749 157.972 43.0908 158.138 43.4707C158.309 43.8795 158.395 44.3185 158.391 44.7612C158.394 45.2055 158.308 45.646 158.138 46.0567C157.972 46.4366 157.729 46.7785 157.424 47.061C157.11 47.3521 156.743 47.5805 156.342 47.7339C155.911 47.8983 155.453 47.9801 154.991 47.9749ZM154.991 46.9706C155.294 46.973 155.594 46.9185 155.877 46.8099C156.143 46.7073 156.384 46.5499 156.585 46.348C156.784 46.1452 156.942 45.9066 157.05 45.645C157.273 45.0765 157.273 44.4459 157.05 43.8774C156.943 43.6167 156.785 43.3795 156.585 43.1794C156.385 42.9766 156.143 42.819 155.877 42.7175C155.594 42.6094 155.294 42.5549 154.991 42.5568C154.69 42.5543 154.392 42.6088 154.111 42.7175C153.848 42.824 153.609 42.9813 153.407 43.1805C153.206 43.3796 153.046 43.6165 152.938 43.8774C152.715 44.4441 152.715 45.0732 152.938 45.64C153.045 45.9037 153.203 46.1442 153.403 46.348C153.603 46.5508 153.844 46.7084 154.111 46.8099C154.391 46.9143 154.688 46.9621 154.986 46.9505L154.991 46.9706Z" fill="#353535"/>
<path d="M167.364 46.7647H164.116L163.671 47.8845H161.142L164.177 40.1866H167.212L170.277 47.8845H167.748L167.364 46.7647ZM166.575 44.7562L165.735 42.6321L164.895 44.7662L166.575 44.7562Z" fill="#353535"/>
<path d="M175.355 43.9728L178.234 47.8845H175.098L172.816 44.4549V47.8845H170.323V40.1716H172.816V43.5159L175.239 40.1716H178.274L175.355 43.9728Z" fill="#353535"/>
<path d="M183.889 46.7647H180.641L180.196 47.8845H177.667L180.702 40.1866H183.737L186.807 47.8845H184.278L183.889 46.7647ZM183.105 44.7562L182.265 42.6321L181.435 44.7562H183.105Z" fill="#353535"/>
<path d="M186.741 47.1414V44.8215C187.783 45.4039 189.179 46.0065 190.373 46.0065C190.879 46.0065 191.147 45.886 191.147 45.6902C191.147 44.8315 186.66 45.3035 186.66 42.6221C186.66 40.9851 188.335 40.0812 190.358 40.0812C191.356 40.0781 192.345 40.2798 193.261 40.6737V42.9485C192.285 42.4224 191.204 42.1188 190.095 42.0597C189.589 42.0597 189.265 42.1802 189.265 42.3911C189.265 43.2698 193.737 42.6974 193.737 45.4039C193.737 46.9757 192.219 47.99 190.085 47.99C188.917 47.9864 187.768 47.6948 186.741 47.1414Z" fill="#353535"/>
<path d="M202.042 44.0481C202.042 46.2927 200.358 47.995 197.844 47.995C195.33 47.995 193.681 46.2927 193.681 44.0481C193.681 41.8035 195.355 40.0812 197.844 40.0812C200.333 40.0812 202.042 41.8086 202.042 44.0481ZM199.452 44.0481C199.449 43.7367 199.354 43.4332 199.177 43.1758C199.001 42.9183 198.751 42.7186 198.46 42.6017C198.17 42.4848 197.851 42.4561 197.543 42.519C197.236 42.5819 196.955 42.7338 196.734 42.9554C196.514 43.177 196.364 43.4584 196.305 43.7642C196.245 44.0699 196.278 44.3863 196.4 44.6735C196.521 44.9606 196.726 45.2056 196.987 45.3776C197.249 45.5496 197.556 45.6409 197.869 45.6399C198.082 45.6495 198.295 45.6144 198.494 45.5369C198.692 45.4594 198.872 45.3412 199.021 45.1901C199.171 45.0389 199.286 44.8582 199.361 44.6597C199.435 44.4612 199.466 44.2494 199.452 44.0381V44.0481Z" fill="#353535"/>
<path d="M204.743 42.4362V43.3049H208.198V45.5395H204.743V47.8945H202.25V40.1967H208.598V42.4412H204.743V42.4362Z" fill="#353535"/>
<path d="M215.816 42.4764H213.393V47.8845H210.924V42.4764H208.486V40.1716H215.841L215.816 42.4764Z" fill="#353535"/>
<path d="M237.009 13.2215H233.716L234.541 9.95251H237.834L237.009 13.2215Z" fill="#EEEEEE"/>
<path d="M240.393 9.56082H237.96L238.567 7.14551H241L240.393 9.56082Z" fill="#EEEEEE"/>
<path d="M239.113 14.2257H237.651L238.016 12.7745H239.477L239.113 14.2257Z" fill="#EEEEEE"/>
</g>
<defs>
<clipPath id="clip0_2312_118">
<rect width="241" height="48" fill="white"/>
</clipPath>
</defs>
</svg>
